HIERARCHY
ROOT root     
{
	OFFSET 0.0000 0.0000 0.0000
	CHANNELS 6 Xposition Yposition Zposition Zrotation Yrotation Xrotation
	JOINT pelvis   
	{
		OFFSET 0.0000 0.0000 0.0000
		CHANNELS 3 Zrotation Yrotation Xrotation
		JOINT thorax   
		{
			OFFSET 0.0000 23.0750 -5.0000
			CHANNELS 3 Zrotation Yrotation Xrotation
			JOINT rclavicle
			{
				OFFSET 0.0000 28.0009 0.0000
				CHANNELS 3 Zrotation Yrotation Xrotation
				JOINT rhumerus 
				{
					OFFSET -18.5725 5.5939 0.0000
					CHANNELS 3 Zrotation Yrotation Xrotation
					JOINT rradius  
					{
						OFFSET -24.8459 0.0000 0.0000
						CHANNELS 3 Zrotation Yrotation Xrotation
						JOINT rhand    
						{
							OFFSET -24.5477 0.0000 0.0000
							CHANNELS 3 Zrotation Yrotation Xrotation
							End Site
							{
								OFFSET -8.1826 0.0000 0.0000
							}
						}
					}
				}
			}
			JOINT lclavicle
			{
				OFFSET 0.0000 28.0009 0.0000
				CHANNELS 3 Zrotation Yrotation Xrotation
				JOINT lhumerus 
				{
					OFFSET 18.5725 5.5939 0.0000
					CHANNELS 3 Zrotation Yrotation Xrotation
					JOINT lradius  
					{
						OFFSET 24.8459 0.0000 0.0000
						CHANNELS 3 Zrotation Yrotation Xrotation
						JOINT lhand    
						{
							OFFSET 24.5477 0.0000 0.0000
							CHANNELS 3 Zrotation Yrotation Xrotation
							End Site
							{
								OFFSET 8.1826 0.0000 0.0000
							}
						}
					}
				}
			}
			JOINT head     
			{
				OFFSET 0.0000 35.2030 0.0000
				CHANNELS 3 Zrotation Yrotation Xrotation
				End Site
				{
					OFFSET 0.0000 11.7343 0.0000
				}
			}
		}
		JOINT rfemur   
		{
			OFFSET -8.2817 0.0000 0.0000
			CHANNELS 3 Zrotation Yrotation Xrotation
			JOINT rtibia   
			{
				OFFSET 0.0000 -43.3627 0.0000
				CHANNELS 3 Zrotation Yrotation Xrotation
				JOINT rfoot    
				{
					OFFSET 0.0000 -38.2947 0.0000
					CHANNELS 3 Zrotation Yrotation Xrotation
					JOINT rtoes    
					{
						OFFSET 0.0000 0.0000 16.6054
						CHANNELS 3 Zrotation Yrotation Xrotation
						End Site
						{
							OFFSET 0.0000 0.0000 5.5351
						}
					}
				}
			}
		}
		JOINT lfemur   
		{
			OFFSET 8.2817 0.0000 0.0000
			CHANNELS 3 Zrotation Yrotation Xrotation
			JOINT ltibia   
			{
				OFFSET 0.0000 -43.3627 0.0000
				CHANNELS 3 Zrotation Yrotation Xrotation
				JOINT lfoot    
				{
					OFFSET 0.0000 -38.2947 0.0000
					CHANNELS 3 Zrotation Yrotation Xrotation
					JOINT ltoes    
					{
						OFFSET 0.0000 0.0000 16.6054
						CHANNELS 3 Zrotation Yrotation Xrotation
						End Site
						{
							OFFSET 0.0000 0.0000 5.5351
						}
					}
				}
			}
		}
	}
}
MOTION
Frames: 12
Frame Time: .0333333
57.147 78.836 6.3893 86.1525 -88.6529 -64.7968 0 -0 0 2.62407 1.47733 16.5696 17.8901 -9.45686 7.80465e-05 44.6503 5.98087 4.18117 -180 87.4449 -180 -3.73407 4.82079 -0.157197 -20.047 19.4534 0.000130348 -57.6201 21.0633 11.6597 0 -59.6626 0 -4.80628 4.30417 -0.180701 -1.32044 -0.688215 -22.4764 5.62535 -18.1124 -28.8724 -0 -0 53.0731 9.20829e-06 3.6928 -18.8128 -1.1923 6.01491e-06 -44.0869 -18.9949 10.8288 -62.7992 -0 -0 34.6893 5.74267e-06 9.63316 -4.67926 -0.793311 -3.61089e-06 -33.6369 
56.273 78.652 6.3642 91.5873 -88.932 -70.4135 0 -0 0 2.5473 1.62697 16.5903 17.8929 -9.47208 1.6569e-05 44.3976 5.98585 4.42964 -180 87.1294 -180 -3.71367 4.81107 -0.1561 -20.0435 19.5654 -3.99189e-05 -57.8162 21.1767 11.7433 0 -59.0576 0 -4.84742 4.33123 -0.183403 -1.32716 -0.596902 -22.4669 5.57918 -18.1023 -28.0071 -0 -0 53.1321 3.89987e-06 3.95092 -18.8117 -1.27578 1.20837e-05 -45.3114 -19.0696 10.967 -62.6673 -0 -0 33.3891 2.45812e-06 9.707 -4.60393 -0.786608 -1.83003e-06 -33.1787 
55.379 78.455 6.3329 102.122 -89.2891 -81.1456 0 -0 0 2.49904 1.77013 16.6069 17.9085 -9.49541 -5.75303e-05 44.1318 5.99964 4.71177 -180 86.8307 -180 -3.6817 4.79504 -0.154198 -20.0456 19.6729 -3.77356e-05 -58.0092 21.2971 11.818 0 -58.4508 0 -4.8804 4.3542 -0.185605 -1.33502 -0.488106 -22.4411 5.55756 -18.0933 -27.11 -0 -0 53.1859 4.41229e-08 4.22507 -18.7877 -1.36288 4.22797e-06 -46.6299 -18.9738 11.0814 -62.5125 -0 -0 32.3725 -3.98046e-06 9.81482 -4.47418 -0.773197 -2.67445e-06 -32.6308 
54.473 78.26 6.3618 156.098 -88.6664 -135.343 0 -0 0 1.8371 2.76382 16.6983 18.0891 -9.51843 1.72499e-05 43.8502 6.0438 4.98896 -180 86.5741 -180 -3.63267 4.77114 -0.151405 -19.917 19.766 -1.2493e-06 -58.2139 21.3654 11.8734 5.47952e-07 -57.8182 -9.92246e-07 -4.90742 4.3708 -0.1874 -1.19579 -0.371392 -22.4393 4.99478 -17.2326 -26.2947 -0 -0 53.4591 1.00115e-05 4.48409 -18.7455 -1.44374 -1.76308e-05 -47.9443 -19.3631 12.0087 -62.5022 -0 -0 31.662 6.68522e-07 9.84886 -4.44624 -0.771096 1.46861e-06 -31.9007 
53.551 78.04 6.3249 172.669 -88.61 -152.103 0 -0 0 1.79795 2.90276 16.6629 18.1466 -9.54678 2.03679e-05 43.5621 6.0456 5.31638 -180 86.3343 -180 -3.56392 4.73856 -0.1475 -19.9016 19.8836 -1.93406e-05 -58.4049 21.4613 11.9564 0 -57.1752 0 -4.92997 4.38073 -0.188699 -1.18179 -0.233899 -22.3828 4.9937 -17.2157 -25.409 -0 -0 53.553 3.49256e-05 4.79264 -18.6998 -1.53983 1.44042e-06 -49.2089 -18.9081 12.0126 -62.4015 -0 -0 31.3806 -2.82428e-06 10.0777 -4.15086 -0.737002 -7.96125e-06 -31.145 
52.619 77.813 6.2862 -172.568 -88.4869 -167.038 0 -0 0 1.75485 3.02726 16.6127 18.2271 -9.58333 5.84658e-06 43.2716 6.05079 5.66254 -180 86.1146 -180 -3.4788 4.70349 -0.142899 -19.8918 19.9873 5.92867e-05 -58.5773 21.5576 12.0329 0 -56.5346 0 -4.94384 4.38631 -0.189498 -1.14839 -0.0849994 -22.3272 4.99187 -17.1975 -24.5333 -0 -0 53.6718 4.29159e-06 5.11272 -18.63 -1.63718 -3.63462e-06 -50.4961 -18.2703 11.9377 -62.3487 -0 -0 31.519 -2.51633e-08 10.3801 -3.75055 -0.686501 3.07999e-06 -30.3173 
51.679 77.578 6.2494 -161.312 -88.2306 -178.473 0 -0 0 1.68662 3.14426 16.546 18.3312 -9.61911 6.27921e-05 42.9869 6.03981 6.01167 -180 85.92 -180 -3.37477 4.66498 -0.137498 -19.8738 20.0835 -1.68386e-05 -58.74 21.6316 12.1138 5.04286e-07 -55.8807 -9.50819e-07 -4.95427 4.38765 -0.189902 -1.08698 0.0703973 -22.2794 4.96893 -17.1738 -23.6818 -0 -0 53.8325 -3.21727e-05 5.45067 -18.5391 -1.73774 -1.13377e-06 -51.7455 -17.4916 11.7915 -62.3694 -0 -0 32.0875 -2.9482e-06 10.7415 -3.2433 -0.614907 -1.32972e-06 -29.4543 
50.73 77.338 6.2174 -153.428 -87.9651 173.484 0 -0 0 1.57951 3.25449 16.4707 18.4602 -9.6534 -4.30303e-05 42.717 6.00854 6.35607 -180 85.7254 -180 -3.25503 4.62578 -0.131502 -19.8465 20.1667 -6.68067e-05 -58.8871 21.6844 12.1974 0 -55.2135 0 -4.96216 4.38753 -0.190204 -0.992689 0.228602 -22.249 4.90951 -17.1445 -22.8592 -0 -0 54.0467 6.66784e-06 5.81033 -18.417 -1.84128 1.28989e-05 -52.9742 -16.6184 11.5894 -62.4732 -0 -0 33.0695 -2.4019e-06 11.1371 -2.6345 -0.518498 -3.89497e-07 -28.5424 
49.773 77.097 6.1908 -147.975 -87.6899 167.871 0 -0 0 1.43248 3.35253 16.4015 18.6074 -9.6882 1.22992e-06 42.4749 5.96133 6.69252 -180 85.5566 -180 -3.12592 4.59076 -0.125299 -19.8259 20.2179 -0.000145231 -59.0056 21.7265 12.2703 0 -54.556 0 -4.96525 4.38994 -0.1904 -0.865796 0.387799 -22.2433 4.80637 -17.1095 -22.0532 -0 -0 54.3043 -1.11709e-05 6.19003 -18.2457 -1.94489 -6.88076e-06 -54.2521 -15.6899 11.3495 -62.6474 -0 -0 34.4257 5.05716e-06 11.5341 -1.94899 -0.397698 -1.72128e-07 -27.504 
48.808 76.855 6.1733 -144.552 -87.3898 164.278 0 -0 0 1.2258 3.45015 16.3434 18.7747 -9.71661 1.68207e-05 42.269 5.88083 7.00757 -180 85.4088 -180 -2.9891 4.55834 -0.119001 -19.7915 20.2499 0.000167424 -59.1092 21.7299 12.3462 0 -53.8855 0 -4.97016 4.39671 -0.190897 -0.702606 0.541801 -22.2683 4.6398 -17.065 -21.2691 -0 -0 54.6168 -2.0635e-05 6.59726 -18.0189 -2.04896 -3.56282e-05 -55.5727 -14.7802 11.108 -62.8912 -0 -0 36.0873 4.50816e-06 11.8925 -1.20745 -0.254304 -1.05546e-06 -26.3987 
47.833 76.615 6.1646 -142.451 -87.1183 161.998 0 -0 0 0.960602 3.54168 16.3052 18.9576 -9.74015 -2.01604e-06 42.1105 5.77394 7.30155 -180 85.2778 -180 -2.85229 4.53245 -0.112898 -19.7596 20.2477 0.000109673 -59.182 21.714 12.4108 0 -53.2246 0 -4.97271 4.41158 -0.191699 -0.506896 0.690804 -22.3249 4.40905 -17.0104 -20.4943 -0 -0 54.9699 2.50613e-06 7.02737 -17.714 -2.14797 1.11782e-05 -57.0007 -13.9271 10.8869 -63.1746 -0 -0 37.9712 1.44761e-07 12.1858 -0.458106 -0.0988991 -3.71735e-08 -25.1207 
46.849 76.382 6.1653 -141.359 -86.8947 160.723 0 -0 0 0.631585 3.62735 16.2895 19.1551 -9.75612 6.95324e-05 42.0088 5.63851 7.57103 -180 85.1959 -180 -2.7198 4.5141 -0.107201 -19.7297 20.2067 3.79259e-05 -59.2256 21.6774 12.4583 0 -52.5797 0 -4.97286 4.43758 -0.192798 -0.282206 0.834203 -22.4116 4.11035 -16.9439 -19.7259 -0 -0 55.3511 -3.21227e-05 7.479 -17.3165 -2.23769 1.15864e-05 -58.5652 -13.1754 10.7099 -63.4741 -0 -0 39.9869 -1.20795e-06 12.3966 0.247396 0.0543988 -5.81988e-08 -23.6622 
